<?xml version="1.0" standalone="no"?>
<!DOCTYPE svg PUBLIC "-//W3C//DTD SVG 1.1//EN" "http://www.w3.org/Graphics/SVG/1.1/DTD/svg11.dtd" >
<svg xmlns="http://www.w3.org/2000/svg">
<metadata></metadata>
<defs>
<font id="metrischlight" horiz-adv-x="622" >
<font-face units-per-em="1000" ascent="750" descent="-250" />
<missing-glyph horiz-adv-x="295" />
<glyph unicode="&#xfb01;" horiz-adv-x="473" d="M377 683q18 0 30.5 -12.5t12.5 -30.5q0 -17 -12.5 -29.5t-30.5 -12.5q-17 0 -29.5 12.5t-12.5 29.5q0 18 12.5 30.5t29.5 12.5zM134 492h269v-492h-50v452h-219v-452h-51v452h-63v40h63v48q0 135 128 135q21 0 45 -3v-40q-32 4 -45 4q-77 0 -77 -97v-47z" />
<glyph unicode="&#xfb02;" horiz-adv-x="472" d="M83 492v48q0 135 128 135q21 0 45 -3v-40q-32 4 -45 4q-77 0 -77 -97v-47h125v-40h-125v-452h-51v452h-63v40h63zM403 0h-51v666h51v-666z" />
<glyph unicode="&#xfb03;" horiz-adv-x="756" d="M366 492v48q0 135 128 135q21 0 45 -3v-40q-32 4 -45 4q-77 0 -77 -97v-47h125v-40h-125v-452h-51v452h-232v-452h-51v452h-63v40h63v48q0 135 128 135q21 0 45 -3v-40q-32 4 -45 4q-77 0 -77 -97v-47h232zM636 0h50v492h-50v-492zM618 640q0 18 12.5 30.5t29.5 12.5 q18 0 30.5 -12.5t12.5 -30.5q0 -17 -12.5 -29.5t-30.5 -12.5q-17 0 -29.5 12.5t-12.5 29.5z" />
<glyph unicode="&#xfb04;" horiz-adv-x="755" d="M366 492v48q0 135 127 135q21 0 45 -3v-40q-30 4 -45 4q-76 0 -76 -98v-46h124v-40h-124v-452h-51v452h-232v-452h-51v452h-63v40h63v48q0 135 128 135q21 0 45 -3v-40q-32 4 -45 4q-77 0 -77 -97v-47h232zM685 0h-50v666h50v-666z" />
<glyph horiz-adv-x="0" />
<glyph horiz-adv-x="333" />
<glyph unicode=" "  horiz-adv-x="295" />
<glyph unicode="&#x09;" horiz-adv-x="295" />
<glyph unicode="&#xa0;" horiz-adv-x="295" />
<glyph unicode="!" horiz-adv-x="243" d="M139 129h-35l-14 538h64zM79 42q0 18 12.5 30t29.5 12q18 0 30.5 -12t12.5 -30t-12.5 -30t-30.5 -12q-17 0 -29.5 12t-12.5 30z" />
<glyph unicode="&#x22;" horiz-adv-x="333" d="M82 516l19 68q-31 8 -31 40q0 19 12 31t30 12t30 -12t12 -31q0 -14 -50 -108h-22zM206 516l19 68q-31 8 -31 40q0 19 12 31t29 12q19 0 31 -12t12 -31q0 -12 -50 -108h-22z" />
<glyph unicode="#" horiz-adv-x="782" d="M451 -12l37 208h-253l-36 -208h-47l36 208h-118l8 43h118l34 198h-117l7 44h118l35 199h47l-35 -199h252l36 199h47l-36 -199h128l-7 -44h-128l-35 -198h128l-8 -43h-127l-37 -208h-47zM495 239l35 198h-253l-34 -198h252z" />
<glyph unicode="$" horiz-adv-x="631" d="M289 -66v58q-133 7 -217 82v52q39 -40 97.5 -63.5t119.5 -26.5v286q-40 9 -65.5 16t-58 20.5t-51 29.5t-31.5 42.5t-13 59.5q0 85 64.5 133t154.5 52v57h36v-57q118 -7 201 -79v-52q-37 39 -91 61.5t-110 25.5v-273q43 -9 68.5 -16t60.5 -21t54.5 -31t33.5 -45t14 -64 q0 -89 -68 -137.5t-163 -51.5v-58h-36zM289 367v264q-70 -2 -121.5 -39t-51.5 -104q0 -23 10 -41.5t24 -30t39.5 -21.5t45.5 -15.5t54 -12.5zM325 313v-277q73 2 128 39.5t55 107.5q0 31 -14 53.5t-43.5 37t-55.5 22.5t-70 17z" />
<glyph unicode="%" horiz-adv-x="899" d="M277 0h-39l463 667h40zM239 665q74 0 122 -46.5t48 -128.5t-47.5 -128.5t-122.5 -46.5q-73 0 -121 47t-48 128t48 128t121 47zM239 633q-58 0 -96 -37.5t-38 -105.5t38 -105.5t96 -37.5q59 0 97 37t38 106q0 58 -35 100.5t-100 42.5zM722 350q73 0 121.5 -47t48.5 -128 q0 -82 -48 -128.5t-122 -46.5t-122 47t-48 128t48 128t122 47zM722 318q-58 0 -96.5 -37.5t-38.5 -105.5t38.5 -105.5t96.5 -37.5t96 37.5t38 105.5q0 58 -34.5 100.5t-99.5 42.5z" />
<glyph unicode="&#x26;" horiz-adv-x="694" d="M587 -21l-98 113q-53 -55 -101 -83t-113 -28q-39 0 -77 10t-72 30.5t-55 57t-21 83.5q1 19 6.5 38t10.5 32.5t20 31t21.5 26t28 26t27.5 22.5t32 24t30 22q-105 107 -105 192q0 54 43.5 90t101.5 36q64 0 109 -36.5t45 -94.5q0 -55 -35 -99.5t-93 -89.5q54 -54 193 -215 q46 66 76 165h49q-34 -121 -93 -205l127 -148h-57zM262 413q50 38 80.5 75.5t30.5 83.5q0 42 -32 67t-75 25q-41 0 -69 -26t-28 -63q0 -71 93 -162zM459 130q-129 150 -203 226q-10 -8 -39.5 -30t-44.5 -35t-34.5 -34.5t-28.5 -45t-9 -49.5q0 -63 51.5 -97.5t124.5 -34.5 q101 0 183 100z" />
<glyph unicode="'" horiz-adv-x="215" d="M85 516l19 68q-31 8 -31 40q0 19 12 31t30 12t30 -12t12 -31q0 -14 -50 -108h-22z" />
<glyph unicode="(" horiz-adv-x="340" d="M255 674l31 -31q-84 -61 -126 -155.5t-42 -203.5q0 -110 41.5 -206t126.5 -154l-31 -31q-89 52 -137 163t-48 228t47.5 227t137.5 163z" />
<glyph unicode=")" horiz-adv-x="340" d="M85 -107l-30 31q84 58 126 154.5t42 205.5q0 108 -42 203t-126 156l30 31q91 -53 138.5 -163t47.5 -227t-48 -228t-138 -163z" />
<glyph unicode="*" horiz-adv-x="439" d="M254 528l116 -67l-20 -30l-110 67v-115h-39v116l-112 -68l-19 30l116 67l-116 68l19 29l112 -67v113h39v-113l110 67l20 -29z" />
<glyph unicode="+" horiz-adv-x="616" d="M286 229h-206v44h206v205h43v-205h207v-44h-207v-205h-43v205z" />
<glyph unicode="," horiz-adv-x="154" d="M49 -67l19 68q-31 8 -31 41q0 18 12 30t30 12t30 -12t12 -30q0 -14 -50 -109h-22z" />
<glyph unicode="-" horiz-adv-x="385" d="M315 273v-44h-245v44h245z" />
<glyph unicode="." horiz-adv-x="150" d="M33 42q0 18 12 30t30 12t30 -12t12 -30t-12 -30t-30 -12t-30 12t-12 30z" />
<glyph unicode="/" horiz-adv-x="337" d="M29 -15h-39l318 683h39z" />
<glyph unicode="0" horiz-adv-x="679" d="M336 676q118 0 196 -91.5t78 -251.5t-78 -251t-196 -91q-119 0 -196.5 92t-77.5 250q0 159 77.5 251t196.5 92zM336 627q-96 0 -159 -78.5t-63 -215.5q0 -136 63 -214.5t159 -78.5t158.5 78t62.5 215q0 75 -22.5 139.5t-74 109.5t-124.5 45z" />
<glyph unicode="1" horiz-adv-x="317" d="M165 0v616q-85 -37 -130 -59v49l138 61h44v-667h-52z" />
<glyph unicode="2" horiz-adv-x="607" d="M74 537v57q88 80 218 82q98 2 170.5 -52t72.5 -150q0 -29 -23.5 -68.5t-52 -72.5t-82.5 -81t-84 -73t-86 -70q-27 -21 -74 -61h404v-48h-484v47l73 59q54 42 76 60t75.5 62t81 71t62 63.5t49.5 64.5t15 50q0 74 -58 113.5t-134 38.5q-60 -1 -119 -24.5t-100 -67.5z" />
<glyph unicode="3" horiz-adv-x="571" d="M400 621h-350v46h419v-40l-266 -225q57 10 110.5 2t95.5 -28t67 -65t25 -110q0 -67 -41.5 -116.5t-100.5 -71.5t-126 -22q-96 0 -171 47v52q76 -52 171 -52q86 0 152 43.5t66 121.5q0 86 -52.5 127t-146.5 41q-61 0 -131 -18v35z" />
<glyph unicode="4" horiz-adv-x="617" d="M433 667h52v-479h73v-44h-73v-144h-52v144h-388v45zM433 188v407l-328 -407h328z" />
<glyph unicode="5" horiz-adv-x="575" d="M55 667h419v-46h-375v-230q64 33 143 35q107 2 185.5 -54.5t78.5 -160.5q0 -100 -81.5 -160t-186.5 -60q-96 0 -172 47v52q76 -52 172 -52q84 0 151 46.5t67 126.5t-66.5 128t-149.5 48q-86 0 -162 -46h-23v326z" />
<glyph unicode="6" horiz-adv-x="654" d="M544 609v-54q-88 75 -204 75q-69 0 -123.5 -50t-80 -118t-21.5 -131q82 100 221 100q98 0 172 -60.5t74 -155.5q0 -101 -73 -162t-176 -61q-56 0 -102 19t-76 50.5t-50 75t-29 91t-9 100.5q0 47 10.5 95t32.5 93.5t53.5 81t77 57t99.5 21.5q117 0 204 -67zM333 40 q83 0 141 47t58 128q0 77 -59.5 125.5t-140.5 48.5q-63 0 -121 -25t-94 -75q7 -109 60.5 -179t155.5 -70z" />
<glyph unicode="7" horiz-adv-x="562" d="M460 621h-390v46h443v-44l-273 -623h-53z" />
<glyph unicode="8" horiz-adv-x="613" d="M58 196q0 67 46 115t118 66q-51 18 -81.5 54t-30.5 86q0 70 58.5 114.5t138.5 44.5q78 -2 136.5 -45t58.5 -117q0 -51 -32.5 -86.5t-83.5 -50.5q74 -19 121.5 -65.5t47.5 -115.5q-3 -99 -77 -151.5t-176 -52.5q-100 0 -172 56t-72 148zM303 394q63 0 107.5 31t44.5 88 q0 53 -45 85.5t-104 32.5t-103 -33t-44 -85q0 -54 42.5 -86.5t101.5 -32.5zM301 40q82 0 142.5 41t61.5 117q0 71 -61 114.5t-138 43.5q-80 0 -139 -43.5t-59 -114.5q0 -72 57 -115t136 -43z" />
<glyph unicode="9" horiz-adv-x="655" d="M101 60v55q77 -77 199 -77q71 0 128.5 50t85 118t23.5 131q-82 -100 -221 -100q-98 0 -172 60.5t-74 155.5q0 101 73 162t176 61q56 0 102 -19t76 -50.5t50 -75t29 -91t9 -100.5q0 -59 -19 -119t-53.5 -112t-90 -84.5t-122.5 -32.5q-120 0 -199 68zM319 628 q-83 0 -141 -47t-58 -128q0 -77 59.5 -125.5t140.5 -48.5q64 0 122 25t93 75q-7 109 -60.5 179t-155.5 70z" />
<glyph unicode=":" horiz-adv-x="150" d="M33 282q0 18 12 30t30 12t30 -12t12 -30t-12 -30t-30 -12t-30 12t-12 30zM33 42q0 18 12 30t30 12t30 -12t12 -30t-12 -30t-30 -12t-30 12t-12 30z" />
<glyph unicode=";" horiz-adv-x="150" d="M75 240q-18 0 -30 12t-12 30t12 30t30 12t30 -12t12 -30t-12 -30t-30 -12zM49 -67l19 68q-31 9 -31 41q0 18 12 30t30 12t30 -12t12 -30q0 -15 -9 -26l-41 -83h-22z" />
<glyph unicode="&#x3c;" horiz-adv-x="493" d="M393 453v-46l-274 -156l274 -157v-45l-318 181v42z" />
<glyph unicode="=" horiz-adv-x="474" d="M70 342h334v-39h-334v39zM70 216h334v-40h-334v40z" />
<glyph unicode="&#x3e;" horiz-adv-x="493" d="M100 49v45l274 157l-274 156v46l318 -181v-42z" />
<glyph unicode="?" horiz-adv-x="484" d="M35 551v52q87 77 193 74q85 -2 145.5 -55.5t60.5 -133.5q0 -33 -23.5 -67t-57 -64.5t-67 -63.5t-55 -75.5t-19.5 -88.5h-42q-1 51 20.5 97.5t53.5 79.5t64 62.5t54.5 59.5t22.5 58q0 63 -47.5 103.5t-114.5 41.5q-105 0 -188 -80zM149 42q0 18 12 30t30 12t30 -12t12 -30 t-12 -30t-30 -12t-30 12t-12 30z" />
<glyph unicode="@" horiz-adv-x="820" d="M573 14v-39q-71 -40 -159 -40q-147 0 -250.5 99t-103.5 251q0 150 104.5 245t251.5 95q86 0 153.5 -25.5t107 -68t60 -93t22.5 -105.5q3 -102 -44.5 -171t-108.5 -77q-37 -5 -62 11t-32 51q-49 -41 -111 -41q-70 0 -122.5 47.5t-52.5 122.5q0 74 52.5 121.5t122.5 47.5 q62 0 110 -40v32h34v-256q0 -37 14.5 -52.5t43.5 -12.5q49 10 85.5 67t34.5 141q-1 50 -19.5 95.5t-54 84t-96 61t-137.5 22.5q-133 0 -225.5 -84t-92.5 -218q0 -136 91.5 -225t224.5 -89q84 0 159 43zM506 186v177q-41 46 -103 46q-54 0 -94.5 -36.5t-40.5 -96.5 q0 -62 40.5 -99t94.5 -37q62 0 103 46z" />
<glyph unicode="A" d="M547 0l-71 176h-330l-71 -176h-55l265 667h52l265 -667h-55zM461 220l-150 377l-150 -377h300z" />
<glyph unicode="B" horiz-adv-x="605" d="M70 667h264q81 0 139 -42.5t58 -121.5q0 -52 -31.5 -92.5t-81.5 -56.5q64 -13 103.5 -60.5t39.5 -112.5q0 -83 -57.5 -132t-140.5 -49h-293v667zM121 371h219q59 4 100.5 35.5t41.5 88.5q0 61 -46 93t-110 32h-205v-249zM121 47h233q67 0 112 37.5t45 102.5 q0 70 -48.5 105.5t-122.5 35.5h-219v-281z" />
<glyph unicode="C" horiz-adv-x="635" d="M560 89v-54q-79 -44 -168 -44q-144 0 -245.5 100t-101.5 242t101.5 242.5t245.5 100.5q89 0 168 -44v-53q-79 48 -168 48q-122 0 -208.5 -86t-86.5 -208q0 -121 86.5 -207t208.5 -86q88 0 168 49z" />
<glyph unicode="D" horiz-adv-x="644" d="M70 667h197q140 0 238.5 -97.5t98.5 -236.5q0 -138 -98.5 -235.5t-238.5 -97.5h-197v667zM122 47h138q121 0 207 83.5t86 202.5t-85.5 203t-207.5 84h-138v-573z" />
<glyph unicode="E" horiz-adv-x="579" d="M518 369v-49h-396v-275h407v-45h-459v667h459v-47h-407v-251h396z" />
<glyph unicode="F" horiz-adv-x="579" d="M517 369v-49h-395v-320h-52v667h459v-47h-407v-251h395z" />
<glyph unicode="G" horiz-adv-x="654" d="M564 632v-53q-82 48 -172 48q-122 0 -208.5 -86t-86.5 -208q0 -121 86.5 -207t208.5 -86q74 0 139 35v249h-221v44h269v-324q-89 -53 -187 -53q-144 0 -245.5 100t-101.5 242t101.5 242.5t245.5 100.5q92 0 172 -44z" />
<glyph unicode="H" horiz-adv-x="621" d="M499 370v297h52v-667h-52v320h-377v-320h-52v667h52v-297h377z" />
<glyph unicode="I" horiz-adv-x="191" d="M121 0h-51v667h51v-667z" />
<glyph unicode="J" horiz-adv-x="485" d="M75 35v54q76 -49 161 -49q54 0 91 41.5t37 96.5v489h51v-491q0 -74 -50 -129.5t-125 -55.5q-91 0 -165 44z" />
<glyph unicode="K" horiz-adv-x="606" d="M122 300l360 367h68l-249 -258l271 -409h-62l-245 372l-143 -142v-230h-52v667h52v-367z" />
<glyph unicode="L" horiz-adv-x="544" d="M504 47v-47h-434v667h52v-620h382z" />
<glyph unicode="M" horiz-adv-x="753" d="M631 0v541l-235 -541h-39l-236 541v-541h-51v667h40l266 -598l266 598h41v-667h-52z" />
<glyph unicode="N" horiz-adv-x="642" d="M520 92v575h52v-667h-43l-408 575v-575h-51v667h42z" />
<glyph unicode="O" horiz-adv-x="792" d="M397 676q143 0 244 -100.5t101 -242.5t-101 -242t-244 -100q-145 0 -246 100t-101 242q0 143 101 243t246 100zM397 626q-122 0 -208.5 -86t-86.5 -207t86.5 -207t208.5 -86q121 0 207 86t86 207t-86 207t-207 86z" />
<glyph unicode="P" horiz-adv-x="584" d="M70 667h265q86 0 142.5 -52.5t56.5 -141.5q0 -86 -57.5 -139t-141.5 -53h-213v-281h-52v667zM122 326h202q67 0 112.5 39.5t45.5 105.5q0 69 -44.5 108.5t-113.5 39.5h-202v-293z" />
<glyph unicode="Q" horiz-adv-x="808" d="M699 -71l-115 121q-82 -59 -187 -59q-145 0 -246 100t-101 242q0 143 101 243t246 100q143 0 244 -100.5t101 -242.5q0 -76 -32 -143.5t-88 -115.5l137 -145h-60zM397 626q-122 0 -208.5 -86t-86.5 -207t86.5 -207t208.5 -86q121 0 207 86t86 207t-86 207t-207 86z" />
<glyph unicode="R" horiz-adv-x="588" d="M70 667h265q86 0 142.5 -53.5t56.5 -142.5q0 -75 -48 -125.5t-121 -60.5l173 -285h-58l-169 281h-189v-281h-52v667zM122 326h202q67 0 112.5 39.5t45.5 105.5q0 69 -44.5 108.5t-113.5 39.5h-202v-293z" />
<glyph unicode="S" horiz-adv-x="602" d="M72 75v57q44 -45 109.5 -69.5t131.5 -24.5q77 0 135 37t58 109q0 69 -94 106q-31 12 -84 24t-93 22.5t-80.5 28t-62.5 48.5t-22 76q0 89 70.5 138t164.5 49q132 0 222 -81v-57q-42 43 -102 67t-120 24q-74 0 -130 -36t-56 -106q0 -27 12.5 -47t39 -33.5t51.5 -21.5 t65 -17q123 -27 160 -42q110 -44 110 -144q0 -64 -38 -108.5t-92 -63.5t-117 -19q-64 0 -128 21.5t-110 62.5z" />
<glyph unicode="T" horiz-adv-x="547" d="M502 667v-48h-203v-619h-52v619h-202v48h457z" />
<glyph unicode="U" horiz-adv-x="643" d="M573 667v-447q0 -105 -73.5 -167t-177.5 -62q-105 0 -178.5 62t-73.5 167v447h52v-447q0 -83 58 -131.5t142 -48.5t141.5 48t57.5 132v447h52z" />
<glyph unicode="V" horiz-adv-x="627" d="M314 78l236 589h58l-270 -667h-51l-267 667h57z" />
<glyph unicode="W" horiz-adv-x="928" d="M485 667l199 -579q28 96 83.5 289.5t83.5 289.5h58l-198 -667h-47l-199 576l-197 -576h-46l-202 667h58l171 -580l194 580h42z" />
<glyph unicode="X" horiz-adv-x="573" d="M286 292l-206 -292h-60l235 335l-232 332h60l203 -288l204 288h60l-233 -332l236 -335h-60z" />
<glyph unicode="Y" horiz-adv-x="550" d="M20 667h56l198 -412l200 412h56l-231 -468v-199h-52v198z" />
<glyph unicode="Z" horiz-adv-x="639" d="M135 48h434v-48h-499v47l436 572h-436v48h499v-47z" />
<glyph unicode="[" horiz-adv-x="303" d="M100 -114v781h134v-40h-87v-703h87v-38h-134z" />
<glyph unicode="\" horiz-adv-x="337" d="M347 -15h-39l-318 683h39z" />
<glyph unicode="]" horiz-adv-x="303" d="M157 -76v703h-87v40h134v-781h-134v38h87z" />
<glyph unicode="^" horiz-adv-x="532" d="M266 634l-124 -168h-42l150 206h32l150 -206h-43z" />
<glyph unicode="_" horiz-adv-x="561" d="M492 12v-36h-422v36h422z" />
<glyph unicode="`" horiz-adv-x="296" d="M100 667h47l49 -124h-33z" />
<glyph unicode="a" horiz-adv-x="532" d="M411 0v54q-68 -63 -156 -63q-54 0 -102 16t-83 55t-35 96q0 64 46 105t111 41h217q-4 83 -50.5 119.5t-136.5 36.5q-90 -4 -146 -43v46q65 38 156 38q228 0 228 -214q0 -48 0.5 -143.5t0.5 -143.5h-50zM411 265h-204q-53 0 -88.5 -28.5t-35.5 -75.5q0 -65 53.5 -96.5 t122.5 -31.5q91 0 152 63v169z" />
<glyph unicode="b" horiz-adv-x="584" d="M110 666v-236q73 71 165 71q110 0 187.5 -72.5t77.5 -182.5t-77.5 -182.5t-187.5 -72.5q-95 0 -165 62v-53h-50v666h50zM110 386v-290q68 -63 165 -63q89 0 152 60.5t63 152.5t-63 152.5t-152 60.5q-98 0 -165 -73z" />
<glyph unicode="c" horiz-adv-x="559" d="M489 447v-50q-75 60 -169 60q-93 0 -159.5 -59.5t-66.5 -151.5t66.5 -151.5t159.5 -59.5q96 0 169 60v-50q-76 -54 -169 -54q-113 0 -194 72t-81 183t81 183t194 72q93 0 169 -54z" />
<glyph unicode="d" horiz-adv-x="584" d="M525 666v-666h-51v53q-70 -62 -164 -62q-110 0 -187.5 72.5t-77.5 182.5t77.5 182.5t187.5 72.5q95 0 164 -71v236h51zM474 96v290q-67 73 -164 73q-90 0 -153 -60.5t-63 -152.5t63.5 -152.5t152.5 -60.5q98 0 164 63z" />
<glyph unicode="e" horiz-adv-x="599" d="M549 238h-455q1 -89 65 -146.5t159 -57.5q123 0 210 73v-45q-38 -32 -96 -51.5t-118 -19.5q-116 0 -192.5 74t-76.5 188q2 104 74.5 176t178.5 72q107 0 181 -80.5t70 -182.5zM96 277h405q-5 77 -64 129.5t-139 52.5q-83 0 -140.5 -51.5t-61.5 -130.5z" />
<glyph unicode="f" horiz-adv-x="279" d="M83 492v48q0 135 128 135q21 0 45 -3v-40q-32 4 -45 4q-77 0 -77 -97v-47h125v-40h-125v-452h-51v452h-63v40h63z" />
<glyph unicode="g" horiz-adv-x="585" d="M526 492v-499q0 -62 -20 -107.5t-54.5 -71t-75 -37.5t-87.5 -11q-60 -1 -118 18.5t-101 56.5v52q40 -40 99 -62t120 -22q79 -1 133 43.5t54 141.5q0 18 -0.5 29t-0.5 30q-68 -62 -163 -62q-109 1 -188 73t-78 182q-1 110 78 182t188 73q97 0 163 -71v62h51zM475 96v290 q-67 75 -163 73q-89 1 -153 -60.5t-63 -152.5q-1 -92 63 -152.5t153 -60.5q97 0 163 63z" />
<glyph unicode="h" horiz-adv-x="568" d="M110 666v-236q73 71 165 71q110 0 176.5 -72.5t66.5 -182.5v-246h-51v246q0 92 -52 152.5t-140 60.5q-98 0 -165 -73v-386h-50v666h50z" />
<glyph unicode="i" horiz-adv-x="190" d="M52 640q0 18 12.5 30.5t29.5 12.5q18 0 30.5 -12.5t12.5 -30.5q0 -17 -12.5 -29.5t-30.5 -12.5q-17 0 -29.5 12.5t-12.5 29.5zM70 0h50v492h-50v-492z" />
<glyph unicode="j" horiz-adv-x="217" d="M80 640q0 18 12 30.5t30 12.5t30 -12.5t12 -30.5q0 -17 -12 -29.5t-30 -12.5t-30 12.5t-12 29.5zM97 492v-547q0 -98 -77 -98q-13 0 -45 4v-40q23 -3 45 -3q127 0 127 135v549h-50z" />
<glyph unicode="k" horiz-adv-x="566" d="M119 666v-434l325 260h71l-236 -191l252 -301h-61l-228 270l-123 -98v-172h-49v666h49z" />
<glyph unicode="l" horiz-adv-x="190" d="M120 0h-50v666h50v-666z" />
<glyph unicode="m" horiz-adv-x="913" d="M115 490v-59q72 70 161 70q120 0 169 -103q79 103 204 103q98 0 148.5 -58.5t50.5 -152.5v-290h-50v281q0 80 -37.5 129t-111.5 49q-111 0 -178 -94v-365h-51v325q0 51 -35 92.5t-109 41.5q-96 0 -161 -73v-386h-50v490h50z" />
<glyph unicode="n" horiz-adv-x="588" d="M115 490v-60q73 71 165 71q110 0 176.5 -72.5t66.5 -182.5v-246h-51v246q0 93 -51.5 153t-140.5 60q-98 0 -165 -73v-386h-50v490h50z" />
<glyph unicode="o" horiz-adv-x="611" d="M305 502q109 0 185 -75t76 -181t-76 -180.5t-185 -74.5q-108 0 -184 74.5t-76 180.5t76 181t184 75zM305 456q-86 0 -148 -61.5t-62 -148.5t62 -148.5t148 -61.5q87 0 149 61.5t62 148.5t-62 148.5t-149 61.5z" />
<glyph unicode="p" horiz-adv-x="585" d="M60 492h50v-62q69 71 164 71q109 -1 188 -73t78 -182q1 -110 -78 -182t-188 -73q-97 0 -164 62q0 -51 -0.5 -118t-0.5 -118h-49v675zM110 386v-290q68 -63 164 -63q89 0 152.5 60.5t62.5 152.5q1 91 -63 152.5t-152 60.5q-94 2 -164 -73z" />
<glyph unicode="q" horiz-adv-x="585" d="M526 -183h-50q0 51 -0.5 118t-0.5 118q-68 -62 -163 -62q-109 1 -188 73t-78 182q-1 110 78 182t188 73q97 0 163 -71v62h51v-675zM475 96v290q-67 75 -163 73q-89 1 -153 -60.5t-63 -152.5q-1 -92 63 -152.5t153 -60.5q97 0 163 63z" />
<glyph unicode="r" horiz-adv-x="362" d="M115 492v-58q72 67 165 67q27 0 52 -4v-42q-25 4 -53 4q-97 0 -164 -69v-390h-50v492h50z" />
<glyph unicode="s" horiz-adv-x="496" d="M63 50v51q35 -32 85.5 -49.5t101.5 -17.5q58 0 103 25.5t45 78.5q0 31 -23 49t-65 30q-20 5 -63.5 13.5t-69.5 16t-56.5 21.5t-45.5 37.5t-15 56.5q0 68 56.5 103.5t131.5 35.5q103 0 176 -58v-51q-34 31 -82 48.5t-95 17.5q-54 0 -97 -25.5t-43 -75.5q0 -48 71 -71 q23 -8 66 -16.5t74.5 -16.5t64.5 -21.5t50.5 -38t17.5 -60.5q0 -71 -61 -106.5t-140 -35.5q-112 0 -187 59z" />
<glyph unicode="t" horiz-adv-x="304" d="M93 492v174h51v-174h125v-40h-125v-317q0 -98 77 -98q13 0 45 4v-40q-26 -3 -49 -3q-124 0 -124 137v317h-63v40h63z" />
<glyph unicode="u" horiz-adv-x="562" d="M447 0v60q-73 -71 -157 -71q-108 0 -166.5 70.5t-58.5 180.5v250h50v-250q0 -92 44 -150t131 -58q90 0 157 72v386h50v-490h-50z" />
<glyph unicode="v" horiz-adv-x="494" d="M20 492h54l173 -428l173 428h54l-201 -492h-51z" />
<glyph unicode="w" horiz-adv-x="755" d="M378 411l-142 -411h-47l-169 492h51l146 -422l141 422h39l148 -421l138 421h53l-164 -492h-47z" />
<glyph unicode="x" horiz-adv-x="460" d="M200 246l-180 246h59l151 -205q29 40 85.5 116.5t65.5 88.5h59l-181 -246l181 -246h-59l-151 205q-9 -12 -65.5 -88.5t-85.5 -116.5h-59z" />
<glyph unicode="y" horiz-adv-x="495" d="M74 492l173 -426l174 426h54l-194 -474l-21 -54q-26 -66 -70 -111.5t-101 -44.5q-21 0 -43 3v45q21 -3 40 -3q82 0 136 149l-202 490h54z" />
<glyph unicode="z" horiz-adv-x="511" d="M451 447l-321 -401h321v-46h-391q0 8 0.5 23t0.5 23l321 401h-321v45h390v-45z" />
<glyph unicode="{" horiz-adv-x="399" d="M330 670v-40q-75 0 -78 -74q0 -9 0.5 -36.5t0.5 -41t-1.5 -40t-5 -42t-9.5 -37t-15 -34.5t-23.5 -26t-32.5 -20q18 -7 32.5 -20t23.5 -26t15 -34t9.5 -36t5 -41.5t1.5 -40t-0.5 -41t-0.5 -37.5q3 -76 78 -76v-38q-12 -1 -26.5 1.5t-38.5 11t-40 34t-17 64.5 q-1 17 -1.5 50.5t-1 55.5t-6 51.5t-15.5 48t-31.5 34t-52.5 20.5v40q31 4 52.5 19.5t31.5 34.5t15.5 48.5t6 52t1 55.5t1.5 50q1 39 17 64t40 33.5t38.5 11t26.5 1.5z" />
<glyph unicode="|" horiz-adv-x="242" d="M100 -98v818h42v-818h-42z" />
<glyph unicode="}" horiz-adv-x="399" d="M70 630v40q11 1 25.5 -1.5t38.5 -11t40 -33.5t17 -64q2 -18 2 -60t2.5 -68.5t12 -58t32.5 -50t60 -23.5v-40q-37 -6 -60 -24.5t-32.5 -50t-12 -57t-2.5 -68t-2 -60.5q-1 -39 -17 -64.5t-40 -34t-38.5 -11t-25.5 -1.5v38q74 0 77 76q0 9 -0.5 37t-0.5 41.5t1.5 39.5t5 41 t10 36.5t15.5 34.5t23.5 26t32.5 20q-21 8 -36.5 21.5t-25 35.5t-15.5 37.5t-8 47.5t-2.5 45t0 48.5t0.5 41.5q-3 74 -77 74z" />
<glyph unicode="~" horiz-adv-x="523" d="M453 300v-51q-30 -30 -69.5 -32.5t-78.5 11t-78.5 26t-81 8t-75.5 -37.5v49q36 29 80.5 31.5t84.5 -11t79 -26t75.5 -7t63.5 39.5z" />
<glyph unicode="&#xa1;" horiz-adv-x="243" d="M79 495q0 18 12.5 30t29.5 12q18 0 30.5 -12t12.5 -30t-12.5 -30t-30.5 -12q-17 0 -29.5 12t-12.5 30zM104 408h35l15 -538h-64z" />
<glyph unicode="&#xa2;" horiz-adv-x="553" d="M150 -66l36 93q-60 33 -95.5 90t-35.5 129q0 111 81 183t194 72q18 0 35 -3l32 82h38l-34 -90q54 -12 98 -43v-48q-50 41 -114 53l-151 -399q32 -13 64 -17q13 -2 40 -2q91 2 161 59v-48q-76 -54 -169 -54q-58 0 -111 22l-30 -79h-39zM203 70l143 380q-12 5 -22 8 q-92 -2 -156.5 -61.5t-64.5 -150.5q0 -57 27 -102.5t73 -73.5z" />
<glyph unicode="&#xa3;" horiz-adv-x="651" d="M138 350v124q0 83 65.5 137.5t149.5 56.5q106 0 191 -76v-49q-37 38 -87.5 59.5t-100.5 20.5q-64 0 -116.5 -39.5t-52.5 -109.5v-124h235v-34h-235v-233q34 6 80 -5t87.5 -25t83 -23t78 2.5t60.5 49.5v-54q-33 -36 -75 -45t-82 3t-86 26.5t-87 25.5t-86 1t-82 -48v51 q27 24 60 35v239h-68v34h68z" />
<glyph unicode="&#xa4;" horiz-adv-x="559" d="M490 425l-75 -76q36 -44 36 -104q0 -57 -36 -104l75 -75l-30 -31l-76 76q-44 -36 -104 -36q-58 0 -104 36l-75 -76l-31 31l76 75q-37 49 -37 104q0 59 37 104l-76 76l31 30l75 -75q45 36 104 36q60 0 104 -36l76 75zM151 245q0 -51 38.5 -90t90.5 -39q51 0 90 38t39 91 q0 52 -38 90.5t-91 38.5q-52 0 -89.5 -38t-39.5 -91z" />
<glyph unicode="&#xa5;" horiz-adv-x="567" d="M249 137v26l-3 30h-148v34h138l-214 440h56l198 -412l200 412h56l-218 -440h136v-34h-146l-3 -30v-26h149v-34h-149v-103h-52v103h-151v34h151z" />
<glyph unicode="&#xa6;" horiz-adv-x="244" d="M100 -98v364h42v-364h-42zM100 356v364h42v-364h-42z" />
<glyph unicode="&#xa7;" horiz-adv-x="524" d="M73 -30v49q68 -63 170 -65q30 0 55.5 3t50 12t38.5 27.5t14 45.5q0 30 -21.5 48t-44 23.5t-73.5 13.5q-8 1 -12 2q-31 5 -52.5 9.5t-48 13.5t-42 21t-26.5 32t-11 46q0 46 28.5 74t73.5 40q-48 16 -74.5 39.5t-26.5 66.5q0 68 57 103.5t132 35.5q104 0 175 -58v-49 q-64 61 -168 65q-57 1 -103.5 -25t-46.5 -76q0 -24 12 -41t39 -28t48 -16.5t61 -12.5q38 -7 63.5 -14.5t52 -21.5t40 -36.5t13.5 -54.5q0 -47 -22 -70t-64 -32q46 -12 69 -35t23 -67q0 -49 -33 -79t-74 -39t-93 -9q-104 0 -179 59zM399 246q0 48 -44.5 72.5t-108.5 24.5 q-58 0 -96.5 -22t-38.5 -74q0 -44 40.5 -62.5t110.5 -21.5q64 -3 100.5 14t36.5 69z" />
<glyph unicode="&#xa8;" horiz-adv-x="270" d="M43 587q0 16 10.5 26.5t25.5 10.5q16 0 26.5 -10.5t10.5 -26.5q0 -15 -10.5 -25.5t-26.5 -10.5q-15 0 -25.5 10.5t-10.5 25.5zM154 587q0 16 10.5 26.5t26.5 10.5q15 0 25.5 -10.5t10.5 -26.5q0 -15 -10.5 -25.5t-25.5 -10.5q-16 0 -26.5 10.5t-10.5 25.5z" />
<glyph unicode="&#xa9;" horiz-adv-x="832" d="M417 676q143 0 244 -100.5t101 -242.5t-101 -242t-244 -100q-144 0 -245.5 100t-101.5 242t101.5 242.5t245.5 100.5zM417 642q-129 0 -221 -90.5t-92 -218.5t92 -218.5t221 -90.5q130 0 220.5 90.5t90.5 218.5t-90.5 218.5t-220.5 90.5zM516 219v-35q-39 -22 -83 -22 q-73 0 -123.5 50t-50.5 121t50.5 121.5t123.5 50.5q44 0 83 -22v-35q-38 24 -80 24q-62 0 -102 -39t-40 -100q0 -60 39.5 -99t100.5 -39q44 0 82 24z" />
<glyph unicode="&#xaa;" horiz-adv-x="336" d="M252 363v31q-38 -36 -91 -36q-52 0 -92.5 26t-40.5 76q0 39 28 64t68 25h128q-3 48 -30 68.5t-80 20.5q-51 -2 -89 -27v32q40 24 95 24q138 0 138 -130v-83q0 -15 0.5 -45.5t0.5 -45.5h-35zM252 525h-119q-30 0 -51 -18t-21 -46q0 -38 31.5 -56t71.5 -18q52 0 88 36v102z " />
<glyph unicode="&#xab;" horiz-adv-x="528" d="M273 487v-54l-162 -182l162 -182v-53l-198 216v38zM428 487v-54l-162 -182l162 -182v-53l-198 216v38z" />
<glyph unicode="&#xac;" horiz-adv-x="498" d="M385 229h-315v44h358v-160h-43v116z" />
<glyph unicode="&#xad;" horiz-adv-x="385" d="M315 273v-44h-245v44h245z" />
<glyph unicode="&#xae;" horiz-adv-x="832" d="M417 676q143 0 244 -100.5t101 -242.5t-101 -242t-244 -100q-144 0 -245.5 100t-101.5 242t101.5 242.5t245.5 100.5zM417 642q-129 0 -221 -90.5t-92 -218.5t92 -218.5t221 -90.5q130 0 220.5 90.5t90.5 218.5t-90.5 218.5t-220.5 90.5zM307 491h138q43 0 71 -26t28 -71 q0 -38 -24 -63.5t-62 -30.5l87 -142h-32l-85 141h-91v-141h-30v333zM337 324h94q34 0 58 18.5t24 51.5q0 34 -23 52.5t-59 18.5h-94v-141z" />
<glyph unicode="&#xaf;" horiz-adv-x="445" d="M345 599v-33h-245v33h245z" />
<glyph unicode="&#xb0;" horiz-adv-x="388" d="M318 555q0 -52 -36.5 -88t-87.5 -36q-52 0 -88 36t-36 88q0 51 36 87.5t88 36.5q51 0 87.5 -36.5t36.5 -87.5zM287 555q0 37 -27.5 65t-65.5 28q-39 0 -65.5 -27.5t-26.5 -65.5q0 -40 26 -66t66 -26q38 0 65.5 26.5t27.5 65.5z" />
<glyph unicode="&#xb1;" horiz-adv-x="525" d="M240 248h-206v44h206v170h44v-170h207v-44h-207v-169h-44v169zM80 36h365v-35h-365v35z" />
<glyph unicode="&#xb2;" horiz-adv-x="380" d="M63 626v41q53 48 131 50q58 1 102 -32t44 -91q0 -28 -36 -72t-70 -74t-88 -73l-42 -32h238v-33h-292v31q5 5 43 35q5 4 34 27t41.5 33.5t38.5 32.5t39 36t29.5 32t23.5 32.5t7 25.5q0 43 -33.5 66t-77.5 23q-80 -2 -132 -58z" />
<glyph unicode="&#xb3;" horiz-adv-x="372" d="M244 685h-204v32h254v-27l-152 -129q27 2 39 1q59 -2 95.5 -31.5t36.5 -92.5q0 -60 -49.5 -93.5t-113.5 -33.5q-57 0 -103 28v37q50 -33 103 -33q51 0 89.5 25t38.5 71q0 97 -117 97q-37 0 -79 -12v25z" />
<glyph unicode="&#xb4;" horiz-adv-x="296" d="M100 543l48 124h48l-63 -124h-33z" />
<glyph unicode="&#xb5;" horiz-adv-x="612" d="M139 492v-252q0 -76 29.5 -129.5t88.5 -71.5q34 -9 71 -5q82 4 145 70v388h49v-492h-49v62q-71 -73 -158 -73q-127 0 -176 111v-258h-49v650h49z" />
<glyph unicode="&#xb6;" horiz-adv-x="685" d="M236 -109v479q-61 0 -103.5 43t-42.5 106q0 61 42.5 104.5t103.5 43.5h359v-41h-93v-735h-48v735h-171v-735h-47z" />
<glyph unicode="&#xb7;" horiz-adv-x="150" d="M33 250q0 19 12 31t30 12t30 -12t12 -31q0 -17 -12 -29t-30 -12t-30 12t-12 29z" />
<glyph unicode="&#xb8;" horiz-adv-x="237" d="M138 13l-40 -56q34 8 65 -6.5t31 -48.5q0 -30 -25 -47t-59 -17q-35 0 -67 16v24q30 -17 67 -17q27 0 41.5 12t14.5 30q0 20 -19.5 30t-42.5 9t-34 -11v20l45 62h23z" />
<glyph unicode="&#xb9;" horiz-adv-x="228" d="M25 646v35l83 36h30v-401h-36v364z" />
<glyph unicode="&#xba;" horiz-adv-x="455" d="M227 656q65 0 111.5 -45t46.5 -109t-46.5 -109.5t-111.5 -45.5q-66 0 -111.5 45t-45.5 110q0 64 45.5 109t111.5 45zM227 625q-51 0 -87 -36t-36 -87t36 -87.5t87 -36.5t87.5 36.5t36.5 87.5t-36.5 87t-87.5 36z" />
<glyph unicode="&#xbb;" horiz-adv-x="528" d="M100 16v53l162 182l-162 182v54l198 -217v-38zM255 16v53l162 182l-162 182v54l198 -217v-38z" />
<glyph unicode="&#xbc;" horiz-adv-x="675" d="M25 596v35l83 36h30v-401h-36v364zM111 0h-40l464 667h39zM549 401h33v-284h43v-31h-43v-86h-36v86h-230v30zM358 117h188v233z" />
<glyph unicode="&#xbd;" horiz-adv-x="738" d="M93 0h-40l464 667h39zM25 596v35l83 36h30v-401h-36v364zM421 316v41q54 48 131 50q59 1 102.5 -32t43.5 -91q0 -65 -194 -219l-41 -32h237v-33h-292v31q6 6 87.5 70.5t125 109.5t43.5 74q0 43 -33.5 66t-77.5 23q-79 0 -132 -58z" />
<glyph unicode="&#xbe;" horiz-adv-x="788" d="M244 635h-204v32h254v-27l-152 -129q27 2 39 1q59 -2 95.5 -31.5t36.5 -92.5q0 -60 -49.5 -93.5t-113.5 -33.5q-57 0 -103 28v37q50 -33 103 -33q51 0 89.5 25t38.5 71q0 97 -117 97q-37 0 -79 -12v25zM208 0h-40l464 667h39zM662 401h34v-284h42v-32h-42v-85h-37v85 h-230v31zM471 117h188v233z" />
<glyph unicode="&#xbf;" horiz-adv-x="484" d="M335 496q0 -18 -12 -30.5t-29 -12.5q-19 0 -31 12.5t-12 30.5t12.5 30t30.5 12q17 0 29 -12.5t12 -29.5zM449 -66v53q-84 -81 -188 -81q-68 2 -115 43t-47 103q0 27 22.5 57t54.5 59.5t64 63t53.5 79.5t20.5 98h-42q2 -46 -19.5 -89t-55 -75.5t-67 -63t-57 -64.5 t-23.5 -67q0 -80 60.5 -133.5t146.5 -55.5q108 -3 192 73z" />
<glyph unicode="&#xc0;" d="M278 837l48 -124h-33l-63 124h48zM547 0l-71 176h-330l-71 -176h-55l265 667h52l265 -667h-55zM461 220l-150 377l-150 -377h300z" />
<glyph unicode="&#xc1;" d="M294 715l48 124h48l-63 -124h-33zM285 667l-265 -667h55l71 176h330l71 -176h55l-265 667h-52zM461 220h-300l150 377z" />
<glyph unicode="&#xc2;" d="M296 839h32l90 -124h-40l-66 94l-66 -94h-40zM285 667l-265 -667h55l71 176h330l71 -176h55l-265 667h-52zM461 220h-300l150 377z" />
<glyph unicode="&#xc3;" d="M422 788v-45q-22 -23 -51.5 -20t-54.5 18t-56.5 16.5t-57.5 -24.5v41q27 21 60.5 18t62 -17.5t56 -14.5t41.5 28zM547 0l-71 176h-330l-71 -176h-55l265 667h52l265 -667h-55zM461 220l-150 377l-150 -377h300z" />
<glyph unicode="&#xc4;" d="M218 767q0 16 10.5 26.5t26.5 10.5t26 -10.5t10 -26.5q0 -15 -10 -25.5t-26 -10.5t-26.5 10.5t-10.5 25.5zM330 767q0 16 10 26.5t26 10.5t26.5 -10.5t10.5 -26.5q0 -15 -10.5 -25.5t-26.5 -10.5t-26 10.5t-10 25.5zM285 667l-265 -667h55l71 176h330l71 -176h55 l-265 667h-52zM461 220h-300l150 377z" />
<glyph unicode="&#xc5;" d="M310 867q34 0 57.5 -24t23.5 -58t-23 -58t-58 -24t-58.5 24t-23.5 58t24 58t58 24zM310 838q-22 0 -37.5 -15.5t-15.5 -37.5q0 -21 15.5 -37t37.5 -16t37.5 16t15.5 37q-2 22 -17 37.5t-36 15.5zM547 0l-71 176h-330l-71 -176h-55l265 667h52l265 -667h-55zM461 220 l-150 377l-150 -377h300z" />
<glyph unicode="&#xc6;" horiz-adv-x="1058" d="M996 320h-395v-275h407v-45h-459v176h-327q-9 -12 -140 -176h-62q529 665 529 667h459v-47h-406l-1 -251h395v-49zM549 220v367l-297 -367h297z" />
<glyph unicode="&#xc7;" horiz-adv-x="635" d="M403 -9l-24 -34q34 8 65 -6.5t31 -48.5q0 -30 -25 -47t-59 -17q-35 0 -67 16v24q30 -17 67 -17q26 0 41 12t15 30q0 30 -39.5 37.5t-56.5 -9.5v20l28 41q-140 5 -237 103.5t-97 237.5q0 142 101.5 242.5t245.5 100.5q89 0 168 -44v-53q-76 48 -168 48q-122 0 -208.5 -86 t-86.5 -208q0 -121 86.5 -207t208.5 -86q88 0 168 49v-54q-74 -41 -157 -44z" />
<glyph unicode="&#xc8;" horiz-adv-x="579" d="M266 839l49 -124h-33l-63 124h47zM518 369v-49h-396v-275h407v-45h-459v667h459v-47h-407v-251h396z" />
<glyph unicode="&#xc9;" horiz-adv-x="579" d="M268 715l49 124h47l-63 -124h-33zM529 620v47h-459v-667h459v45h-407v275h395v49h-395v251h407z" />
<glyph unicode="&#xca;" horiz-adv-x="579" d="M293 839h33l90 -124h-41l-65 94l-66 -94h-41zM529 620v47h-459v-667h459v45h-407v275h396v49h-396v251h407z" />
<glyph unicode="&#xcb;" horiz-adv-x="579" d="M214 767q0 16 10.5 26.5t26.5 10.5q15 0 25.5 -10.5t10.5 -26.5t-10.5 -26t-25.5 -10q-16 0 -26.5 10t-10.5 26zM325 767q0 16 10.5 26.5t26.5 10.5q15 0 25.5 -10.5t10.5 -26.5t-10.5 -26t-25.5 -10q-16 0 -26.5 10t-10.5 26zM529 620v47h-459v-667h459v45h-407v275h396 v49h-396v251h407z" />
<glyph unicode="&#xcc;" horiz-adv-x="191" d="M65 839l48 -124h-33l-63 124h48zM121 0h-51v667h51v-667z" />
<glyph unicode="&#xcd;" horiz-adv-x="191" d="M78 715l48 124h48l-63 -124h-33zM70 0h51v667h-51v-667z" />
<glyph unicode="&#xce;" horiz-adv-x="191" d="M80 839h32l90 -124h-40l-66 94l-66 -94h-40zM70 0h51v667h-51v-667z" />
<glyph unicode="&#xcf;" horiz-adv-x="191" d="M4 767q0 16 10.5 26.5t25.5 10.5q16 0 26.5 -10.5t10.5 -26.5q0 -15 -10.5 -25.5t-26.5 -10.5q-15 0 -25.5 10.5t-10.5 25.5zM115 767q0 16 10.5 26.5t25.5 10.5q16 0 26.5 -10.5t10.5 -26.5q0 -15 -10.5 -25.5t-26.5 -10.5q-15 0 -25.5 10.5t-10.5 25.5zM70 0h51v667 h-51v-667z" />
<glyph unicode="&#xd0;" horiz-adv-x="644" d="M70 667h197q140 0 238.5 -97.5t98.5 -236.5q0 -138 -98.5 -235.5t-238.5 -97.5h-197v309h-25v44h25v314zM122 353h168v-44h-168v-262h138q121 0 207 83.5t86 202.5t-85.5 203t-207.5 84h-138v-267z" />
<glyph unicode="&#xd1;" horiz-adv-x="642" d="M436 788v-45q-22 -23 -51.5 -20t-54.5 18t-57 16.5t-58 -24.5v41q28 21 61.5 18t62 -17.5t55.5 -14.5t42 28zM520 92v575h52v-667h-43l-408 575v-575h-51v667h42z" />
<glyph unicode="&#xd2;" horiz-adv-x="792" d="M369 839l49 -124h-33l-63 124h47zM397 676q143 0 244 -100.5t101 -242.5t-101 -242t-244 -100q-145 0 -246 100t-101 242q0 143 101 243t246 100zM397 626q-122 0 -208.5 -86t-86.5 -207t86.5 -207t208.5 -86q121 0 207 86t86 207t-86 207t-207 86z" />
<glyph unicode="&#xd3;" horiz-adv-x="792" d="M372 715l49 124h47l-63 -124h-33zM397 676q-145 0 -246 -100t-101 -243q0 -142 101 -242t246 -100q143 0 244 100t101 242t-101 242.5t-244 100.5zM397 626q121 0 207 -86t86 -207t-86 -207t-207 -86q-122 0 -208.5 86t-86.5 207t86.5 207t208.5 86z" />
<glyph unicode="&#xd4;" horiz-adv-x="792" d="M380 839h33l90 -124h-41l-65 94l-66 -94h-41zM397 676q-145 0 -246 -100t-101 -243q0 -142 101 -242t246 -100q143 0 244 100t101 242t-101 242.5t-244 100.5zM397 626q121 0 207 -86t86 -207t-86 -207t-207 -86q-122 0 -208.5 86t-86.5 207t86.5 207t208.5 86z" />
<glyph unicode="&#xd5;" horiz-adv-x="792" d="M511 788v-45q-22 -23 -51.5 -20t-54 18t-56.5 16.5t-58 -24.5v41q21 18 48 18.5t51 -9t47 -17.5t42.5 -4.5t31.5 26.5zM397 676q143 0 244 -100.5t101 -242.5t-101 -242t-244 -100q-145 0 -246 100t-101 242q0 143 101 243t246 100zM397 626q-122 0 -208.5 -86 t-86.5 -207t86.5 -207t208.5 -86q121 0 207 86t86 207t-86 207t-207 86z" />
<glyph unicode="&#xd6;" horiz-adv-x="792" d="M306 767q0 16 10.5 26.5t26.5 10.5q15 0 25.5 -10.5t10.5 -26.5q0 -15 -10.5 -25.5t-25.5 -10.5q-16 0 -26.5 10.5t-10.5 25.5zM417 767q0 16 10.5 26.5t26.5 10.5q15 0 25.5 -10.5t10.5 -26.5q0 -15 -10.5 -25.5t-25.5 -10.5q-16 0 -26.5 10.5t-10.5 25.5zM397 676 q-145 0 -246 -100t-101 -243q0 -142 101 -242t246 -100q143 0 244 100t101 242t-101 242.5t-244 100.5zM397 626q121 0 207 -86t86 -207t-86 -207t-207 -86q-122 0 -208.5 86t-86.5 207t86.5 207t208.5 86z" />
<glyph unicode="&#xd7;" horiz-adv-x="616" d="M308 220l-146 -146l-30 31l145 145l-145 146l30 31l146 -146l146 147l31 -31l-146 -147l145 -144l-31 -31z" />
<glyph unicode="&#xd8;" horiz-adv-x="792" d="M121 -15l60 79q-61 48 -96 118.5t-35 150.5q0 143 101 243t246 100q108 0 198 -63l61 79h49l-79 -103q116 -103 116 -256q0 -142 -101 -242t-244 -100q-99 0 -183 52l-44 -58h-49zM212 105l352 466q-76 55 -167 55q-122 0 -208.5 -86t-86.5 -207q0 -68 29.5 -127.5 t80.5 -100.5zM595 547l-350 -464q70 -43 152 -43q121 0 207 86t86 207q0 127 -95 214z" />
<glyph unicode="&#xd9;" horiz-adv-x="643" d="M295 839l49 -124h-33l-63 124h47zM573 667v-447q0 -105 -73.5 -167t-177.5 -62q-105 0 -178.5 62t-73.5 167v447h52v-447q0 -83 58 -131.5t142 -48.5t141.5 48t57.5 132v447h52z" />
<glyph unicode="&#xda;" horiz-adv-x="643" d="M303 715l49 124h47l-63 -124h-33zM521 667v-447q0 -84 -57.5 -132t-141.5 -48t-142 48.5t-58 131.5v447h-52v-447q0 -105 73.5 -167t178.5 -62q104 0 177.5 62t73.5 167v447h-52z" />
<glyph unicode="&#xdb;" horiz-adv-x="643" d="M305 839h32l90 -124h-40l-66 94l-66 -94h-40zM521 667v-447q0 -84 -57.5 -132t-141.5 -48t-142 48.5t-58 131.5v447h-52v-447q0 -105 73.5 -167t178.5 -62q104 0 177.5 62t73.5 167v447h-52z" />
<glyph unicode="&#xdc;" horiz-adv-x="643" d="M229 767q0 16 10.5 26.5t25.5 10.5q16 0 26.5 -10.5t10.5 -26.5q0 -15 -10.5 -25.5t-26.5 -10.5q-15 0 -25.5 10.5t-10.5 25.5zM340 767q0 16 10.5 26.5t26.5 10.5q15 0 25.5 -10.5t10.5 -26.5q0 -15 -10.5 -25.5t-25.5 -10.5q-16 0 -26.5 10.5t-10.5 25.5zM521 667v-447 q0 -84 -57.5 -132t-141.5 -48t-142 48.5t-58 131.5v447h-52v-447q0 -105 73.5 -167t178.5 -62q104 0 177.5 62t73.5 167v447h-52z" />
<glyph unicode="&#xdd;" horiz-adv-x="550" d="M244 715l49 124h47l-63 -124h-33zM299 0v199l231 468h-56l-200 -412l-198 412h-56l227 -469v-198h52z" />
<glyph unicode="&#xde;" horiz-adv-x="584" d="M122 587h213q86 0 142.5 -52.5t56.5 -141.5q0 -86 -57.5 -139t-141.5 -53h-213v-201h-52v156v59v452h52v-80zM122 246h203q67 0 112 39.5t45 105.5q0 69 -44.5 108.5t-112.5 39.5h-203v-293z" />
<glyph unicode="&#xdf;" horiz-adv-x="540" d="M70 -90v537q0 110 49 173t149 63q90 0 140.5 -49t50.5 -130q0 -48 -30.5 -90.5t-78.5 -59.5q76 -23 110.5 -73t34.5 -92q0 -96 -65 -142.5t-205 -46.5v45q115 0 168 35.5t53 112.5q0 56 -48.5 93.5t-106.5 45.5v40q55 10 88.5 44t33.5 77q0 65 -37.5 103.5t-107.5 38.5 q-147 0 -147 -188v-537h-51z" />
<glyph unicode="&#xe0;" horiz-adv-x="536" d="M208 667l48 -124h-33l-63 124h48zM411 0v54q-68 -63 -156 -63q-54 0 -102 16t-83 55t-35 96q0 64 46 105t111 41h217q-4 83 -50.5 119.5t-136.5 36.5q-90 -4 -146 -43v46q65 38 156 38q228 0 228 -214q0 -48 0.5 -143.5t0.5 -143.5h-50zM411 264h-204q-53 0 -88.5 -28 t-35.5 -75q0 -65 53.5 -96.5t122.5 -31.5q91 0 152 63v168z" />
<glyph unicode="&#xe1;" horiz-adv-x="536" d="M217 543l49 124h47l-63 -124h-33zM411 0h50q0 48 -0.5 143.5t-0.5 143.5q0 214 -228 214q-91 0 -156 -38v-46q56 39 146 43q90 0 136.5 -36.5t50.5 -119.5h-217q-65 0 -111 -41t-46 -105q0 -57 35 -96t83 -55t102 -16q88 0 156 63v-54zM410 265v-169q-61 -63 -151 -63 q-69 0 -122.5 31.5t-53.5 96.5q0 47 35.5 75.5t88.5 28.5h203z" />
<glyph unicode="&#xe2;" horiz-adv-x="536" d="M231 662h32l90 -124h-40l-65 94l-67 -94h-40zM411 0h50q0 48 -0.5 143.5t-0.5 143.5q0 214 -228 214q-91 0 -156 -38v-46q56 39 146 43q90 0 136.5 -36.5t50.5 -119.5h-217q-65 0 -111 -41t-46 -105q0 -57 35 -96t83 -55t102 -16q88 0 156 63v-54zM410 265v-169 q-61 -63 -151 -63q-69 0 -122.5 31.5t-53.5 96.5q0 47 35.5 75.5t88.5 28.5h203z" />
<glyph unicode="&#xe3;" horiz-adv-x="536" d="M354 639v-45q-18 -19 -40 -20t-43.5 8.5t-43.5 18.5t-47 6.5t-46 -23.5v41q27 21 60.5 18t62 -17.5t56 -14.5t41.5 28zM411 0v54q-68 -63 -156 -63q-54 0 -102 16t-83 55t-35 96q0 64 46 105t111 41h217q-4 83 -50.5 119.5t-136.5 36.5q-90 -4 -146 -43v46q65 38 156 38 q228 0 228 -214q0 -48 0.5 -143.5t0.5 -143.5h-50zM411 264h-204q-53 0 -88.5 -28t-35.5 -75q0 -65 53.5 -96.5t122.5 -31.5q91 0 152 63v168z" />
<glyph unicode="&#xe4;" horiz-adv-x="536" d="M165 587q0 16 10.5 26.5t26.5 10.5q15 0 25.5 -10.5t10.5 -26.5q0 -15 -10.5 -25.5t-25.5 -10.5q-16 0 -26.5 10.5t-10.5 25.5zM276 587q0 16 10.5 26.5t26.5 10.5q15 0 25.5 -10.5t10.5 -26.5q0 -15 -10.5 -25.5t-25.5 -10.5q-16 0 -26.5 10.5t-10.5 25.5zM411 0h50 q0 48 -0.5 143.5t-0.5 143.5q0 214 -228 214q-91 0 -156 -38v-46q56 39 146 43q90 0 136.5 -36.5t50.5 -119.5h-217q-65 0 -111 -41t-46 -105q0 -57 35 -96t83 -55t102 -16q88 0 156 63v-54zM410 265v-169q-61 -63 -151 -63q-69 0 -122.5 31.5t-53.5 96.5q0 47 35.5 75.5 t88.5 28.5h203z" />
<glyph unicode="&#xe5;" horiz-adv-x="536" d="M255 709q34 0 58 -24.5t24 -57.5q0 -34 -23.5 -58t-58.5 -24t-58.5 24t-23.5 58q0 33 24 57.5t58 24.5zM255 679q-22 0 -37.5 -15t-15.5 -37t15.5 -37.5t37.5 -15.5t37.5 15.5t15.5 37.5q-2 22 -17 37t-36 15zM411 0v54q-68 -63 -156 -63q-54 0 -102 16t-83 55t-35 96 q0 64 46 105t111 41h217q-4 83 -50.5 119.5t-136.5 36.5q-90 -4 -146 -43v46q65 38 156 38q228 0 228 -214q0 -48 0.5 -143.5t0.5 -143.5h-50zM411 265h-204q-53 0 -88.5 -28.5t-35.5 -75.5q0 -65 53.5 -96.5t122.5 -31.5q91 0 152 63v169z" />
<glyph unicode="&#xe6;" horiz-adv-x="965" d="M411 0v54q-68 -63 -156 -63q-54 0 -102 16t-83 55t-35 96q0 64 46 105t111 41h217q-4 83 -50.5 119.5t-136.5 36.5q-90 -4 -146 -43v46q65 38 156 38q172 0 214 -123q34 57 91 90t127 33q107 0 181 -80.5t70 -182.5h-455q1 -89 65 -146.5t159 -57.5q123 0 210 73v-45 q-38 -32 -96 -51.5t-118 -19.5q-142 0 -219 104v-95h-50zM411 265h-204q-53 0 -88.5 -28.5t-35.5 -75.5q0 -65 53.5 -96.5t122.5 -31.5q91 0 152 63v169zM462 276h405q-5 77 -64 130t-139 53q-82 0 -139.5 -52t-62.5 -131z" />
<glyph unicode="&#xe7;" horiz-adv-x="549" d="M341 -9l-24 -34q33 8 64 -6.5t31 -48.5q0 -30 -25 -47t-59 -17q-35 0 -67 16v24q30 -17 67 -17q27 0 41.5 12t14.5 30q0 20 -19.5 30t-42 9t-34.5 -11v20l29 40q-110 5 -186.5 76t-76.5 179q0 111 80.5 183t194.5 72q93 0 169 -54v-50q-74 60 -169 60q-93 0 -159.5 -59.5 t-66.5 -151.5t66.5 -151.5t159.5 -59.5q94 0 169 60v-50q-69 -49 -157 -54z" />
<glyph unicode="&#xe8;" horiz-adv-x="614" d="M233 667h48l49 -124h-33zM557 238h-455q1 -89 65 -146.5t159 -57.5q123 0 210 73v-45q-38 -32 -96 -51.5t-118 -19.5q-116 0 -192.5 74t-76.5 188q2 104 74.5 176t178.5 72q107 0 181 -80.5t70 -182.5zM104 276h405q-5 77 -64 130t-139 53q-82 0 -139.5 -52t-62.5 -131z " />
<glyph unicode="&#xe9;" horiz-adv-x="614" d="M283 543l49 124h47l-63 -124h-33zM103 238h455q3 102 -70.5 182.5t-180.5 80.5q-106 0 -178.5 -72t-74.5 -176q0 -114 76.5 -188t192.5 -74q60 0 118 19.5t96 51.5v45q-87 -73 -211 -73q-94 0 -158 57.5t-65 146.5zM509 276h-404q5 79 62.5 131t139.5 52q80 0 139 -53 t63 -130z" />
<glyph unicode="&#xea;" horiz-adv-x="614" d="M291 662h32l90 -124h-40l-66 94l-66 -94h-40zM103 238h455q3 102 -70.5 182.5t-180.5 80.5q-106 0 -178.5 -72t-74.5 -176q0 -114 76.5 -188t192.5 -74q60 0 118 19.5t96 51.5v45q-87 -73 -211 -73q-94 0 -158 57.5t-65 146.5zM509 276h-404q5 79 62.5 131t139.5 52 q81 0 139.5 -52.5t62.5 -130.5z" />
<glyph unicode="&#xeb;" horiz-adv-x="614" d="M214 587q0 16 10.5 26.5t26.5 10.5q15 0 25.5 -10.5t10.5 -26.5q0 -15 -10.5 -25.5t-25.5 -10.5q-16 0 -26.5 10.5t-10.5 25.5zM325 587q0 16 10.5 26.5t26.5 10.5q15 0 25.5 -10.5t10.5 -26.5q0 -15 -10.5 -25.5t-25.5 -10.5q-16 0 -26.5 10.5t-10.5 25.5zM103 238h455 q3 102 -70.5 182.5t-180.5 80.5q-106 0 -178.5 -72t-74.5 -176q0 -114 76.5 -188t192.5 -74q60 0 118 19.5t96 51.5v45q-87 -73 -211 -73q-94 0 -158 57.5t-65 146.5zM509 276h-404q5 79 62.5 131t139.5 52q80 0 139 -53t63 -130z" />
<glyph unicode="&#xec;" horiz-adv-x="219" d="M77 667l49 -124h-33l-63 124h47zM134 0h-50v492h50v-492z" />
<glyph unicode="&#xed;" horiz-adv-x="219" d="M90 543l48 124h48l-63 -124h-33zM84 0h50v492h-50v-492z" />
<glyph unicode="&#xee;" horiz-adv-x="219" d="M93 662h32l90 -124h-40l-65 94l-67 -94h-40zM84 0h50v492h-50v-492z" />
<glyph unicode="&#xef;" horiz-adv-x="219" d="M17 587q0 16 10.5 26.5t26.5 10.5q15 0 25.5 -10.5t10.5 -26.5q0 -15 -10.5 -25.5t-25.5 -10.5q-16 0 -26.5 10.5t-10.5 25.5zM128 587q0 16 10.5 26.5t26.5 10.5q15 0 25.5 -10.5t10.5 -26.5q0 -15 -10.5 -25.5t-25.5 -10.5q-16 0 -26.5 10.5t-10.5 25.5zM84 0h50v492 h-50v-492z" />
<glyph unicode="&#xf0;" horiz-adv-x="588" d="M366 538l41 41q-30 31 -75.5 45t-91.5 7v18q0 3 -0.5 10.5t-0.5 11.5q26 3 54 0q92 -8 146 -59l52 52l23 -23l-50 -51q25 -31 34 -69t9 -98v-423h-51v53q-70 -62 -164 -62q-110 0 -187.5 72.5t-77.5 182.5t77.5 182.5t187.5 72.5q92 0 164 -70q0 79 -28 125l-40 -41z M456 96v290q-67 73 -164 73q-90 0 -153 -60.5t-63 -152.5t63.5 -152.5t152.5 -60.5q96 0 164 63z" />
<glyph unicode="&#xf1;" horiz-adv-x="623" d="M422 639v-45q-18 -19 -40.5 -20t-44 8.5t-43.5 18.5t-47 6.5t-46 -23.5v41q28 21 61.5 18t62 -17.5t55.5 -14.5t42 28zM134 490v-60q71 71 164 71q111 0 177.5 -72.5t66.5 -182.5v-246h-51v246q0 93 -52 153t-141 60q-97 0 -164 -73v-386h-50v490h50z" />
<glyph unicode="&#xf2;" horiz-adv-x="639" d="M288 667l48 -124h-33l-63 124h48zM318 502q108 0 184.5 -75t76.5 -181t-76.5 -180.5t-184.5 -74.5q-109 0 -185 74.5t-76 180.5t76 181t185 75zM318 456q-87 0 -148.5 -61.5t-61.5 -148.5t61.5 -148.5t148.5 -61.5t148.5 61.5t61.5 148.5t-61.5 148.5t-148.5 61.5z" />
<glyph unicode="&#xf3;" horiz-adv-x="639" d="M299 543l48 124h48l-63 -124h-33zM318 502q-109 0 -185 -75t-76 -181t76 -180.5t185 -74.5q108 0 184.5 74.5t76.5 180.5t-76.5 181t-184.5 75zM318 456q87 0 148.5 -61.5t61.5 -148.5t-61.5 -148.5t-148.5 -61.5t-148.5 61.5t-61.5 148.5t61.5 148.5t148.5 61.5z" />
<glyph unicode="&#xf4;" horiz-adv-x="639" d="M301 662h32l90 -124h-40l-65 94l-67 -94h-40zM318 502q-109 0 -185 -75t-76 -181t76 -180.5t185 -74.5q108 0 184.5 74.5t76.5 180.5t-76.5 181t-184.5 75zM318 456q87 0 148.5 -61.5t61.5 -148.5t-61.5 -148.5t-148.5 -61.5t-148.5 61.5t-61.5 148.5t61.5 148.5 t148.5 61.5z" />
<glyph unicode="&#xf5;" horiz-adv-x="639" d="M429 639v-45q-18 -19 -40 -20t-43.5 8.5t-43.5 18.5t-47 6.5t-46 -23.5v41q27 21 60.5 18t62 -17.5t56 -14.5t41.5 28zM318 502q108 0 184.5 -75t76.5 -181t-76.5 -180.5t-184.5 -74.5q-109 0 -185 74.5t-76 180.5t76 181t185 75zM318 456q-87 0 -148.5 -61.5 t-61.5 -148.5t61.5 -148.5t148.5 -61.5t148.5 61.5t61.5 148.5t-61.5 148.5t-148.5 61.5z" />
<glyph unicode="&#xf6;" horiz-adv-x="639" d="M226 587q0 16 10.5 26.5t26.5 10.5q15 0 25.5 -10.5t10.5 -26.5q0 -15 -10.5 -25.5t-25.5 -10.5q-16 0 -26.5 10.5t-10.5 25.5zM337 587q0 16 10.5 26.5t26.5 10.5q15 0 25.5 -10.5t10.5 -26.5q0 -15 -10.5 -25.5t-25.5 -10.5q-16 0 -26.5 10.5t-10.5 25.5zM318 502 q-109 0 -185 -75t-76 -181t76 -180.5t185 -74.5q108 0 184.5 74.5t76.5 180.5t-76.5 181t-184.5 75zM318 456q87 0 148.5 -61.5t61.5 -148.5t-61.5 -148.5t-148.5 -61.5t-148.5 61.5t-61.5 148.5t61.5 148.5t148.5 61.5z" />
<glyph unicode="&#xf7;" horiz-adv-x="616" d="M260 377q0 18 12.5 30.5t29.5 12.5q18 0 30.5 -12.5t12.5 -30.5q0 -17 -12.5 -29.5t-30.5 -12.5q-17 0 -29.5 12.5t-12.5 29.5zM536 273h-456v-44h456v44zM260 122q0 18 12.5 30.5t29.5 12.5q18 0 30.5 -12.5t12.5 -30.5q0 -17 -12.5 -29.5t-30.5 -12.5q-17 0 -29.5 12.5 t-12.5 29.5z" />
<glyph unicode="&#xf8;" horiz-adv-x="639" d="M98 -29l57 75q-98 77 -98 200q0 106 76 181t185 75q82 0 145 -46l50 66h49l-67 -89q84 -76 84 -187q0 -106 -76.5 -180.5t-184.5 -74.5q-71 0 -130 35l-41 -55h-49zM184 86l250 331q-54 39 -116 39q-87 0 -148.5 -61.5t-61.5 -148.5q0 -99 76 -160zM465 393l-248 -328 q44 -29 101 -29q87 0 148.5 61.5t61.5 148.5t-63 147z" />
<glyph unicode="&#xf9;" horiz-adv-x="597" d="M281 667l49 -124h-33l-63 124h47zM461 0v60q-73 -71 -157 -71q-108 0 -166.5 70.5t-58.5 180.5v250h50v-250q0 -92 44 -150t131 -58q90 0 157 72v386h50v-490h-50z" />
<glyph unicode="&#xfa;" horiz-adv-x="597" d="M286 543l48 124h48l-63 -124h-33zM511 0v490h-50v-386q-69 -72 -157 -72q-87 0 -131 58t-44 150v250h-51v-250q0 -110 59 -180.5t167 -70.5q83 0 157 71v-60h50z" />
<glyph unicode="&#xfb;" horiz-adv-x="597" d="M282 662h32l90 -124h-40l-65 94l-67 -94h-40zM511 0v490h-50v-386q-69 -72 -157 -72q-87 0 -131 58t-44 150v250h-51v-250q0 -110 59 -180.5t167 -70.5q83 0 157 71v-60h50z" />
<glyph unicode="&#xfc;" horiz-adv-x="597" d="M208 587q0 16 10.5 26.5t25.5 10.5q16 0 26.5 -10.5t10.5 -26.5q0 -15 -10.5 -25.5t-26.5 -10.5q-15 0 -25.5 10.5t-10.5 25.5zM319 587q0 16 10.5 26.5t25.5 10.5q16 0 26.5 -10.5t10.5 -26.5q0 -15 -10.5 -25.5t-26.5 -10.5q-15 0 -25.5 10.5t-10.5 25.5zM511 0v490 h-50v-386q-69 -72 -157 -72q-87 0 -131 58t-44 150v250h-51v-250q0 -110 59 -180.5t167 -70.5q83 0 157 71v-60h50z" />
<glyph unicode="&#xfd;" horiz-adv-x="530" d="M237 543l49 124h47l-63 -124h-33zM34 492l202 -490q-51 -149 -136 -149q-19 0 -40 3v-45q22 -3 43 -3q57 -1 101 44.5t70 111.5l22 54l194 474h-54l-175 -426l-173 426h-54z" />
<glyph unicode="&#xfe;" horiz-adv-x="624" d="M83 667h51v-237q68 71 163 71q109 -1 188 -73t78 -182q1 -110 -78 -182t-188 -73q-96 0 -163 62q0 -51 -0.5 -118t-0.5 -118h-49zM134 386v-290q66 -63 163 -63q89 0 153 60.5t63 152.5q1 91 -63 152.5t-153 60.5q-44 1 -87.5 -18.5t-75.5 -54.5z" />
<glyph unicode="&#xff;" horiz-adv-x="530" d="M167 587q0 16 10.5 26.5t25.5 10.5q16 0 26.5 -10.5t10.5 -26.5t-10.5 -26t-26.5 -10q-15 0 -25.5 10t-10.5 26zM278 587q0 16 10.5 26.5t26.5 10.5q15 0 25.5 -10.5t10.5 -26.5t-10.5 -26t-25.5 -10q-16 0 -26.5 10t-10.5 26zM34 492l202 -490q-51 -149 -136 -149 q-19 0 -40 3v-45q22 -3 43 -3q57 -1 101 44.5t70 111.5l22 54l194 474h-54l-175 -426l-173 426h-54z" />
<glyph unicode="&#x152;" horiz-adv-x="1199" d="M690 0v181q-37 -85 -116.5 -137.5t-176.5 -52.5q-145 0 -246 100t-101 242q0 143 101 243t246 100q96 0 176 -53t117 -138v182h459v-47h-407v-251h395v-49h-395v-275h407v-45h-459zM397 626q-122 0 -208.5 -86t-86.5 -207t86.5 -207t208.5 -86q121 0 207 86t86 207 t-86 207t-207 86z" />
<glyph unicode="&#x153;" horiz-adv-x="1072" d="M1020 238h-454q0 -2 -0.5 -4.5t-0.5 -3.5q4 -86 67.5 -141t156.5 -55q123 0 210 73v-45q-38 -32 -96 -51.5t-118 -19.5q-82 0 -147 39.5t-97 106.5q-32 -66 -95 -106t-141 -40q-108 0 -184 74.5t-76 180.5t76 181t184 75q77 0 140 -40t95 -105q31 65 92 104.5t137 39.5 q107 0 181 -80.5t70 -182.5zM305 456q-86 0 -148 -61.5t-62 -148.5t62 -148.5t148 -61.5t147.5 60t63.5 145v5q0 87 -62 148.5t-149 61.5zM567 276h405q-5 77 -64 130t-139 53q-82 0 -139.5 -52t-62.5 -131z" />
<glyph unicode="&#x178;" horiz-adv-x="550" d="M182 767q0 16 10.5 26.5t25.5 10.5q16 0 26.5 -10.5t10.5 -26.5t-10.5 -26t-26.5 -10q-15 0 -25.5 10t-10.5 26zM293 767q0 16 10.5 26.5t25.5 10.5q16 0 26.5 -10.5t10.5 -26.5t-10.5 -26t-26.5 -10q-15 0 -25.5 10t-10.5 26zM299 0v199l231 468h-56l-200 -412l-198 412 h-56l227 -469v-198h52z" />
<glyph unicode="&#x2c6;" horiz-adv-x="298" d="M133 662h32l90 -124h-40l-65 94l-67 -94h-40z" />
<glyph unicode="&#x2dc;" horiz-adv-x="306" d="M263 639v-45q-18 -19 -40 -20t-43.5 8.5t-43.5 18.5t-47 6.5t-46 -23.5v41q21 18 48 18.5t51 -9t47 -17.5t42.5 -4.5t31.5 26.5z" />
<glyph unicode="&#x2000;" horiz-adv-x="433" />
<glyph unicode="&#x2001;" horiz-adv-x="867" />
<glyph unicode="&#x2002;" horiz-adv-x="433" />
<glyph unicode="&#x2003;" horiz-adv-x="867" />
<glyph unicode="&#x2004;" horiz-adv-x="289" />
<glyph unicode="&#x2005;" horiz-adv-x="216" />
<glyph unicode="&#x2006;" horiz-adv-x="144" />
<glyph unicode="&#x2007;" horiz-adv-x="144" />
<glyph unicode="&#x2008;" horiz-adv-x="108" />
<glyph unicode="&#x2009;" horiz-adv-x="173" />
<glyph unicode="&#x200a;" horiz-adv-x="48" />
<glyph unicode="&#x2010;" horiz-adv-x="385" d="M315 273v-44h-245v44h245z" />
<glyph unicode="&#x2011;" horiz-adv-x="385" d="M315 273v-44h-245v44h245z" />
<glyph unicode="&#x2012;" horiz-adv-x="385" d="M315 273v-44h-245v44h245z" />
<glyph unicode="&#x2013;" horiz-adv-x="485" d="M415 273v-44h-345v44h345z" />
<glyph unicode="&#x2014;" horiz-adv-x="615" d="M545 273v-44h-475v44h475z" />
<glyph unicode="&#x2018;" horiz-adv-x="215" d="M130 516h-22q-50 96 -50 108q0 19 12 31t31 12q17 0 29 -12t12 -31q0 -32 -31 -40z" />
<glyph unicode="&#x2019;" horiz-adv-x="215" d="M85 516l19 68q-31 8 -31 40q0 19 12 31t30 12t30 -12t12 -31q0 -14 -50 -108h-22z" />
<glyph unicode="&#x201a;" horiz-adv-x="215" d="M85 -68l19 68q-31 8 -31 40q0 18 12 30.5t30 12.5t30 -12.5t12 -30.5q0 -14 -50 -108h-22z" />
<glyph unicode="&#x201c;" horiz-adv-x="333" d="M251 667l-19 -68q31 -8 31 -40q0 -19 -12 -31t-30 -12t-30 12t-12 31q0 14 50 108h22zM127 667l-19 -68q31 -8 31 -40q0 -19 -12 -31t-30 -12t-30 12t-12 31q0 14 50 108h22z" />
<glyph unicode="&#x201d;" horiz-adv-x="333" d="M82 516l19 68q-31 8 -31 40q0 19 12 31t30 12t30 -12t12 -31q0 -14 -50 -108h-22zM206 516l19 68q-31 8 -31 40q0 19 12 31t29 12q19 0 31 -12t12 -31q0 -12 -50 -108h-22z" />
<glyph unicode="&#x201e;" horiz-adv-x="333" d="M82 -68l19 68q-31 8 -31 41q0 18 12 30t30 12t30 -12t12 -30q0 -14 -50 -109h-22zM206 -68l19 68q-31 8 -31 41q0 18 12 30t29 12q19 0 31 -12t12 -30q0 -12 -50 -109h-22z" />
<glyph unicode="&#x2022;" horiz-adv-x="319" d="M70 255q0 37 26.5 63.5t63.5 26.5t63 -26.5t26 -63.5t-26 -63.5t-63 -26.5q-38 0 -64 26.5t-26 63.5z" />
<glyph unicode="&#x2026;" horiz-adv-x="458" d="M33 42q0 18 12 30t30 12t30 -12t12 -30t-12 -30t-30 -12t-30 12t-12 30zM187 42q0 18 12 30t30 12t30 -12t12 -30t-12 -30t-30 -12t-30 12t-12 30zM341 42q0 18 12 30t30 12t30 -12t12 -30t-12 -30t-30 -12t-30 12t-12 30z" />
<glyph unicode="&#x202f;" horiz-adv-x="173" />
<glyph unicode="&#x2039;" horiz-adv-x="373" d="M273 487v-54l-162 -182l162 -182v-53l-198 216v38z" />
<glyph unicode="&#x203a;" horiz-adv-x="373" d="M100 16v53l162 182l-162 182v54l198 -217v-38z" />
<glyph unicode="&#x205f;" horiz-adv-x="216" />
<glyph unicode="&#x20ac;" horiz-adv-x="675" d="M50 281h60q-3 17 -3 52q0 33 3 49h-60v34h66q26 114 113.5 187t207.5 73q76 0 154 -43v-50q-76 47 -154 47q-99 0 -171.5 -60t-96.5 -154h233v-34h-243q-3 -16 -3 -49q0 -27 3 -52h243v-34h-232q24 -93 96 -151.5t171 -58.5q78 0 154 47v-50q-78 -43 -154 -43 q-119 0 -206 71.5t-114 184.5h-67v34z" />
<glyph unicode="&#x2122;" horiz-adv-x="801" d="M312 687v-32h-120v-370h-37v370h-120v32h277zM705 285v313l-137 -313h-27l-136 313v-313h-36v402h28l158 -353l157 353h29v-402h-36z" />
<glyph unicode="&#x25fc;" horiz-adv-x="490" d="M0 490h490v-490h-490v490z" />
</font>
</defs>
</svg>
